<?xml version="1.0" encoding="utf-8"?>
<!-- Generator: Adobe Illustrator 26.5.0, SVG Export Plug-In . SVG Version: 6.00 Build 0)  -->
<svg version="1.1" id="Layer_1" xmlns="http://www.w3.org/2000/svg" xmlns:xlink="http://www.w3.org/1999/xlink" x="0px" y="0px"
	 viewBox="0 0 595.276001 841.8900146" enable-background="new 0 0 595.276001 841.8900146" xml:space="preserve">
<path d="M115.7785721,504.7115784l-18.2514725-11.2021179c-0.4776001-0.2931213-1.0917358,0.0505371-1.0917358,0.6109009v22.4042358
	c0,0.5603638,0.6141357,0.9039917,1.0917358,0.6109009l18.2514725-11.2021179
	C116.2343597,505.6536255,116.2343597,504.9913025,115.7785721,504.7115784z"/>
<path fill="#010101" d="M454.5904846,455.1942139H98.656105c-1.2264709,0-2.2207108,0.9942627-2.2207108,2.2207031v0.9033203
	c0,1.2264709,0.9942398,2.2207336,2.2207108,2.2207336h355.9343872c1.2264709,0,2.2207336-0.9942627,2.2207336-2.2207336v-0.9033203
	C456.8112183,456.1884766,455.8169556,455.1942139,454.5904846,455.1942139z"/>
<g>
	
		<text transform="matrix(1 0 0 1 122.2230453 530.1264038)" font-family="'GolosText-Medium'" font-size="72px" letter-spacing="-1">MoonRaker</text>
</g>
<text transform="matrix(1 0 0 1 56.2230225 360.8920898)" font-family="'GolosText-Medium'" font-size="72px" letter-spacing="-1">Lankester</text>
<text transform="matrix(1 0 0 1 56.2230225 422.3790894)" font-family="'GolosText-Medium'" font-size="72px" letter-spacing="-1">Engineering</text>
<path d="M39.4990311,416.2589722l11.2021027-18.2514648c0.2931328-0.4776001-0.0505219-1.0917664-0.6109047-1.0917664H27.6860294
	c-0.5603828,0-0.9040375,0.6141663-0.6109028,1.0917664l11.2020988,18.2514648
	C38.5569725,416.7147522,39.2192841,416.7147522,39.4990311,416.2589722z"/>
</svg>
