<?xml version="1.0" encoding="utf-8"?>
<!-- Generator: Adobe Illustrator 26.5.0, SVG Export Plug-In . SVG Version: 6.00 Build 0)  -->
<svg version="1.1" id="Layer_1" xmlns="http://www.w3.org/2000/svg" xmlns:xlink="http://www.w3.org/1999/xlink" x="0px" y="0px"
	 viewBox="0 0 456.0787659 246.9213867" enable-background="new 0 0 456.0787659 246.9213867" xml:space="preserve">
<path d="M88.810463,205.018692l-18.2514648-11.2020874c-0.4776001-0.2931366-1.0917435,0.0505066-1.0917435,0.6109009v22.4041901
	c0,0.5603943,0.6141434,0.9040375,1.0917435,0.6109009L88.810463,206.240509
	C89.2662506,205.9607544,89.2662506,205.2984467,88.810463,205.018692z"/>
<path fill="#010101" d="M427.6223755,155.5013428H71.6879959c-1.2264633,0-2.2207108,0.9942474-2.2207108,2.2207184v0.9033203
	c0,1.2264557,0.9942474,2.2207031,2.2207108,2.2207031h355.9343872c1.2264709,0,2.2207336-0.9942474,2.2207336-2.2207031v-0.9033203
	C429.8431091,156.4955902,428.8488464,155.5013428,427.6223755,155.5013428z"/>
<g>
	<g>
		<path d="M101.7350159,230.4331055v-50.4003906h8.9282227l16.0556641,29.8808594l16.0561523-29.8808594h8.6401367v50.4003906
			h-8.6401367V195.152832l-13.3198242,24.8398438h-5.7602539l-13.3198242-24.8398438v35.2802734H101.7350159z"/>
		<path d="M176.0533752,231.2250977c-3.5043945,0-6.6723633-0.7324219-9.5039062-2.1962891
			c-2.8330078-1.4628906-5.0761719-3.6464844-6.7324219-6.5517578c-1.6557617-2.9033203-2.4838867-6.4912109-2.4838867-10.7636719
			v-1.4404297c0-4.0322266,0.828125-7.4521484,2.4838867-10.2597656c1.65625-2.8076172,3.8994141-4.9316406,6.7324219-6.3720703
			c2.831543-1.4404297,5.9995117-2.1601562,9.5039062-2.1601562c3.5517578,0,6.7319336,0.7197266,9.5400391,2.1601562
			s5.0400391,3.5644531,6.6958008,6.3720703c1.65625,2.8076172,2.4838867,6.2275391,2.4838867,10.2597656v1.4404297
			c0,4.2724609-0.8276367,7.8603516-2.4838867,10.7636719c-1.6557617,2.9052734-3.8876953,5.0888672-6.6958008,6.5517578
			C182.7853088,230.4926758,179.6051331,231.2250977,176.0533752,231.2250977z M176.0533752,224.3129883
			c1.8237305,0,3.5517578-0.4316406,5.184082-1.2958984c1.6308594-0.8642578,2.9516602-2.2197266,3.9599609-4.0683594
			c1.0078125-1.8466797,1.5117188-4.2587891,1.5117188-7.2353516v-1.4404297c0-2.7363281-0.5039062-4.9794922-1.5117188-6.7314453
			c-1.0083008-1.7519531-2.3291016-3.0478516-3.9599609-3.8886719c-1.6323242-0.8388672-3.3603516-1.2597656-5.184082-1.2597656
			c-1.824707,0-3.5527344,0.4208984-5.184082,1.2597656c-1.6323242,0.8408203-2.9521484,2.1367188-3.9599609,3.8886719
			s-1.512207,3.9951172-1.512207,6.7314453v1.4404297c0,2.9765625,0.5043945,5.3886719,1.512207,7.2353516
			c1.0078125,1.8486328,2.3276367,3.2041016,3.9599609,4.0683594
			C172.5006409,223.8813477,174.2286682,224.3129883,176.0533752,224.3129883z"/>
		<path d="M216.1920471,231.2250977c-3.5039062,0-6.671875-0.7324219-9.503418-2.1962891
			c-2.8330078-1.4628906-5.0761719-3.6464844-6.7324219-6.5517578c-1.6557617-2.9033203-2.4838867-6.4912109-2.4838867-10.7636719
			v-1.4404297c0-4.0322266,0.828125-7.4521484,2.4838867-10.2597656c1.65625-2.8076172,3.8994141-4.9316406,6.7324219-6.3720703
			c2.831543-1.4404297,5.9995117-2.1601562,9.503418-2.1601562c3.5517578,0,6.7324219,0.7197266,9.5400391,2.1601562
			c2.8085938,1.4404297,5.0400391,3.5644531,6.6962891,6.3720703s2.484375,6.2275391,2.484375,10.2597656v1.4404297
			c0,4.2724609-0.828125,7.8603516-2.484375,10.7636719c-1.65625,2.9052734-3.8876953,5.0888672-6.6962891,6.5517578
			C222.924469,230.4926758,219.7438049,231.2250977,216.1920471,231.2250977z M216.1920471,224.3129883
			c1.8242188,0,3.5517578-0.4316406,5.1845703-1.2958984c1.6308594-0.8642578,2.9521484-2.2197266,3.9599609-4.0683594
			c1.0078125-1.8466797,1.5117188-4.2587891,1.5117188-7.2353516v-1.4404297c0-2.7363281-0.5039062-4.9794922-1.5117188-6.7314453
			s-2.3291016-3.0478516-3.9599609-3.8886719c-1.6328125-0.8388672-3.3603516-1.2597656-5.1845703-1.2597656
			s-3.5527344,0.4208984-5.1835938,1.2597656c-1.6323242,0.8408203-2.9521484,2.1367188-3.9599609,3.8886719
			s-1.512207,3.9951172-1.512207,6.7314453v1.4404297c0,2.9765625,0.5043945,5.3886719,1.512207,7.2353516
			c1.0078125,1.8486328,2.3276367,3.2041016,3.9599609,4.0683594
			C212.6393127,223.8813477,214.3678284,224.3129883,216.1920471,224.3129883z"/>
		<path d="M239.4049377,230.4331055v-38.1601562h7.34375v6.4082031c0.9111328-1.9189453,2.3994141-3.5996094,4.4638672-5.0400391
			c2.0634766-1.4404297,4.7275391-2.1601562,7.9921875-2.1601562c4.6552734,0,8.1601562,1.2597656,10.5117188,3.7802734
			c2.3515625,2.5195312,3.5283203,6.2041016,3.5283203,11.0517578v24.1201172h-7.9199219V208.112793
			c0-3.2148438-0.6728516-5.6396484-2.015625-7.2714844c-1.3447266-1.6318359-3.5527344-2.4482422-6.6240234-2.4482422
			c-2.2089844,0-3.9960938,0.4677734-5.3642578,1.4042969c-1.3681641,0.9355469-2.3759766,2.1357422-3.0244141,3.5996094
			c-0.6474609,1.4648438-0.9716797,3.0361328-0.9716797,4.7158203v22.3203125H239.4049377z"/>
		<path d="M280.7613831,230.4331055v-50.4003906h19.0791016c4.2236328,0,7.7402344,0.6728516,10.5488281,2.0166016
			c2.8076172,1.34375,4.9316406,3.1923828,6.3720703,5.5439453c1.4394531,2.3525391,2.1591797,5.0644531,2.1591797,8.1357422
			c0,3.4560547-0.9355469,6.4443359-2.8076172,8.9638672c-1.8720703,2.5205078-4.6796875,4.3330078-8.4238281,5.4365234
			l12.671875,20.3037109h-9.5039062l-11.1601562-19.2958984h-10.2958984v19.2958984H280.7613831z M289.4010315,203.9370117h9
			c4.4150391,0,7.4990234-0.7197266,9.2519531-2.1601562c1.7519531-1.4394531,2.6279297-3.4560547,2.6279297-6.0478516
			s-0.8759766-4.6074219-2.6279297-6.0478516c-1.7529297-1.4404297-4.8369141-2.1601562-9.2519531-2.1601562h-9V203.9370117z"/>
		<path d="M335.0201721,231.2250977c-2.7363281,0-5.0761719-0.5166016-7.0205078-1.5478516
			c-1.9433594-1.0322266-3.4199219-2.4589844-4.4277344-4.2841797c-1.0078125-1.8232422-1.5117188-3.8632812-1.5117188-6.1201172
			c0-3.7910156,1.1269531-6.6113281,3.3837891-8.4599609c2.2558594-1.8466797,5.5673828-2.7714844,9.9355469-2.7714844h11.8808594
			v-2.0888672c0-2.8798828-0.6367188-4.859375-1.9082031-5.9394531c-1.2724609-1.0800781-3.2763672-1.6201172-6.0126953-1.6201172
			c-2.4472656,0-4.2470703,0.3847656-5.3994141,1.1523438c-1.1523438,0.7685547-1.8251953,1.8242188-2.0166016,3.1679688h-7.703125
			c0.1435547-2.2080078,0.8388672-4.1513672,2.0878906-5.8320312c1.2470703-1.6796875,3.0117188-2.9990234,5.2919922-3.9599609
			c2.2792969-0.9599609,4.9785156-1.4404297,8.0996094-1.4404297c3.1201172,0,5.84375,0.4804688,8.171875,1.4404297
			c2.328125,0.9609375,4.1279297,2.4599609,5.4003906,4.5c1.2714844,2.0400391,1.9082031,4.7402344,1.9082031,8.0996094v15.1923828
			c0,2.015625,0.0234375,3.7792969,0.0712891,5.2919922c0.0478516,1.5117188,0.1679688,2.9873047,0.3603516,4.4277344h-7.2001953
			c-0.1435547-1.1035156-0.2519531-2.0400391-0.3242188-2.8076172c-0.0712891-0.7675781-0.1074219-1.7285156-0.1074219-2.8808594
			c-0.9121094,1.7763672-2.484375,3.3007812-4.7158203,4.5722656
			C341.0318909,230.5883789,338.283844,231.2250977,335.0201721,231.2250977z M337.1803284,224.3129883
			c1.8232422,0,3.4912109-0.3115234,5.0039062-0.9355469c1.5117188-0.6240234,2.7353516-1.5595703,3.671875-2.8085938
			c0.9355469-1.2470703,1.4042969-2.7597656,1.4042969-4.5361328v-2.0878906h-10.4404297
			c-2.015625,0-3.6357422,0.4326172-4.8603516,1.2958984c-1.2236328,0.8642578-1.8359375,2.1367188-1.8359375,3.8164062
			c0,1.5839844,0.5634766,2.8564453,1.6923828,3.8164062C332.9430237,223.8334961,334.7320862,224.3129883,337.1803284,224.3129883z
			"/>
		<path d="M361.2565002,230.4331055v-50.4003906h7.9199219v28.8720703l15.8398438-16.6318359h9.3603516l-15.4082031,16.2001953
			l16.8476562,21.9599609h-9.5039062l-12.5996094-16.9199219l-4.5361328,4.6083984v12.3115234H361.2565002z"/>
		<path d="M412.5914612,231.2250977c-3.3603516,0-6.4560547-0.7089844-9.2880859-2.1240234
			s-5.1113281-3.5644531-6.8398438-6.4443359c-1.7275391-2.8798828-2.5917969-6.5273438-2.5917969-10.9433594v-1.4404297
			c0-4.2226562,0.828125-7.7275391,2.484375-10.5117188c1.6552734-2.7832031,3.8515625-4.8603516,6.5878906-6.2285156
			c2.7363281-1.3671875,5.7119141-2.0517578,8.9277344-2.0517578c5.8076172,0,10.2597656,1.5605469,13.3564453,4.6796875
			c3.0957031,3.1210938,4.6435547,7.5849609,4.6435547,13.3925781v4.0322266h-27.9355469
			c0.0957031,2.5917969,0.6474609,4.6796875,1.6552734,6.2636719c1.0087891,1.5839844,2.3046875,2.7246094,3.8886719,3.4199219
			c1.5839844,0.6962891,3.2871094,1.0439453,5.1113281,1.0439453c2.7363281,0,4.7402344-0.4316406,6.0126953-1.2958984
			c1.2705078-0.8642578,2.1474609-1.9912109,2.6279297-3.3837891h7.9199219
			c-0.7685547,3.7919922-2.6533203,6.671875-5.6523438,8.6396484
			C420.4996643,230.2416992,416.8639221,231.2250977,412.5914612,231.2250977z M412.2320862,198.3930664
			c-1.7763672,0-3.4326172,0.3125-4.9677734,0.9365234c-1.5371094,0.6240234-2.7851562,1.6083984-3.7441406,2.9511719
			c-0.9609375,1.3447266-1.4882812,3.1445312-1.5839844,5.4003906h20.015625
			c-0.0478516-2.3994141-0.5039062-4.2714844-1.3681641-5.6162109c-0.8642578-1.3427734-2.015625-2.2910156-3.4560547-2.84375
			C415.6881409,198.6694336,414.0553284,198.3930664,412.2320862,198.3930664z"/>
		<path d="M434.4791565,230.4331055v-38.1601562h7.34375v6.4804688c0.5283203-1.34375,1.2597656-2.5566406,2.1962891-3.6367188
			c0.9355469-1.0800781,2.0878906-1.9550781,3.4560547-2.6279297c1.3681641-0.6708984,2.9160156-1.0078125,4.6435547-1.0078125
			c1.1992188,0,2.0996094,0.0488281,2.7001953,0.1445312c0.5996094,0.0966797,1.0195312,0.1923828,1.2597656,0.2880859v7.1992188
			c-0.8164062-0.2392578-1.5595703-0.4189453-2.2314453-0.5400391c-0.6728516-0.1191406-1.4882812-0.1796875-2.4482422-0.1796875
			c-2.0644531,0-3.7685547,0.4677734-5.1123047,1.4042969c-1.34375,0.9355469-2.328125,2.1357422-2.9511719,3.5996094
			c-0.625,1.4648438-0.9365234,3.0361328-0.9365234,4.7158203v22.3203125H434.4791565z"/>
	</g>
</g>
<g>
	<path d="M35.7355042,61.1992188V10.7993164h8.6396484v42.9121094h24.4794922v7.487793H35.7355042z"/>
	<path d="M84.3487854,61.9912109c-2.7363281,0-5.0761719-0.5166016-7.0205078-1.5478516
		c-1.9433594-1.0317383-3.4199219-2.4594727-4.4277344-4.2841797c-1.0078125-1.8237305-1.5117188-3.8632812-1.5117188-6.1201172
		c0-3.7910156,1.1269531-6.6113281,3.3837891-8.4599609c2.2558594-1.847168,5.5673828-2.7719727,9.9355469-2.7719727h11.8808594
		v-2.0878906c0-2.8798828-0.6367188-4.8598633-1.9082031-5.9399414c-1.2724609-1.0800781-3.2763672-1.6201172-6.0126953-1.6201172
		c-2.4472656,0-4.2470703,0.3847656-5.3994141,1.1518555c-1.1523438,0.7685547-1.8251953,1.824707-2.0166016,3.1679688h-7.703125
		c0.1435547-2.2070312,0.8388672-4.1508789,2.0878906-5.831543c1.2470703-1.6796875,3.0117188-2.9995117,5.2919922-3.9604492
		c2.2792969-0.9594727,4.9785156-1.4399414,8.0996094-1.4399414c3.1201172,0,5.84375,0.4804688,8.171875,1.4399414
		c2.328125,0.9609375,4.1279297,2.4604492,5.4003906,4.5c1.2714844,2.0410156,1.9082031,4.7407227,1.9082031,8.1000977v15.1918945
		c0,2.0161133,0.0234375,3.7802734,0.0712891,5.2919922c0.0478516,1.512207,0.1679688,2.9882812,0.3603516,4.4282227H97.740387
		c-0.1435547-1.1035156-0.2519531-2.0395508-0.3242188-2.8081055c-0.0712891-0.7670898-0.1074219-1.7280273-0.1074219-2.8798828
		c-0.9121094,1.7763672-2.484375,3.3007812-4.7158203,4.5717773C90.3605042,61.3544922,87.6124573,61.9912109,84.3487854,61.9912109
		z M86.5089417,55.0791016c1.8232422,0,3.4912109-0.3115234,5.0039062-0.9360352
		c1.5117188-0.6230469,2.7353516-1.559082,3.671875-2.8076172c0.9355469-1.2480469,1.4042969-2.7597656,1.4042969-4.5361328
		v-2.0878906H86.1485901c-2.015625,0-3.6357422,0.4316406-4.8603516,1.2958984
		c-1.2236328,0.8637695-1.8359375,2.1362305-1.8359375,3.815918c0,1.5839844,0.5634766,2.8564453,1.6923828,3.815918
		C82.271637,54.6000977,84.0606995,55.0791016,86.5089417,55.0791016z"/>
	<path d="M110.5851135,61.1992188V23.0390625h7.34375v6.4082031c0.9111328-1.9194336,2.3994141-3.6000977,4.4638672-5.0400391
		c2.0634766-1.4399414,4.7275391-2.1601562,7.9921875-2.1601562c4.6552734,0,8.1601562,1.2602539,10.5117188,3.7802734
		s3.5283203,6.2041016,3.5283203,11.0517578v24.1201172h-7.9199219V38.8793945c0-3.215332-0.6728516-5.6396484-2.015625-7.2719727
		c-1.3447266-1.6313477-3.5527344-2.4482422-6.6240234-2.4482422c-2.2089844,0-3.9960938,0.4682617-5.3642578,1.4038086
		c-1.3681641,0.9360352-2.3759766,2.1367188-3.0244141,3.6000977c-0.6474609,1.4648438-0.9716797,3.0366211-0.9716797,4.7163086
		v22.3198242H110.5851135z"/>
	<path d="M150.5587463,61.1992188V10.7993164h7.9199219v28.8720703l15.8398438-16.6323242h9.3603516l-15.4082031,16.2001953
		l16.8476562,21.9599609h-9.5039062L163.014801,44.2792969l-4.5361328,4.6079102v12.3120117H150.5587463z"/>
	<path d="M201.8946838,61.9912109c-3.3603516,0-6.4560547-0.7089844-9.2880859-2.1240234s-5.1113281-3.5639648-6.8398438-6.4438477
		c-1.7275391-2.8798828-2.5917969-6.5273438-2.5917969-10.9443359v-1.4399414c0-4.2231445,0.828125-7.7275391,2.484375-10.5117188
		c1.6552734-2.7832031,3.8515625-4.8603516,6.5878906-6.2280273c2.7363281-1.3681641,5.7119141-2.0522461,8.9277344-2.0522461
		c5.8076172,0,10.2597656,1.5605469,13.3564453,4.6801758c3.0957031,3.1206055,4.6435547,7.5849609,4.6435547,13.3920898v4.0317383
		h-27.9355469c0.0957031,2.5922852,0.6474609,4.6801758,1.6552734,6.2641602
		c1.0087891,1.5839844,2.3046875,2.7246094,3.8886719,3.4199219c1.5839844,0.6962891,3.2871094,1.0439453,5.1113281,1.0439453
		c2.7363281,0,4.7402344-0.4316406,6.0126953-1.2958984c1.2705078-0.8637695,2.1474609-1.9912109,2.6279297-3.3837891h7.9199219
		c-0.7685547,3.7919922-2.6533203,6.6723633-5.6523438,8.6396484
		C209.802887,61.0078125,206.1671448,61.9912109,201.8946838,61.9912109z M201.5353088,29.1591797
		c-1.7763672,0-3.4326172,0.3129883-4.9677734,0.9360352c-1.5371094,0.6245117-2.7851562,1.6088867-3.7441406,2.9521484
		c-0.9609375,1.3442383-1.4882812,3.144043-1.5839844,5.3999023h20.015625
		c-0.0478516-2.3999023-0.5039062-4.2714844-1.3681641-5.6162109c-0.8642578-1.3432617-2.015625-2.2915039-3.4560547-2.84375
		C204.9913635,29.4360352,203.358551,29.1591797,201.5353088,29.1591797z"/>
	<path d="M238.0450745,61.9912109c-2.7851562,0-5.1845703-0.3125-7.2001953-0.9360352
		c-2.0166016-0.6230469-3.6845703-1.4760742-5.0039062-2.5561523c-1.3212891-1.0795898-2.3291016-2.3149414-3.0244141-3.7080078
		c-0.6962891-1.3916016-1.140625-2.8549805-1.3320312-4.3916016h7.9199219
		c0.3349609,1.3442383,1.1523438,2.4599609,2.4482422,3.3476562c1.2958984,0.8886719,3.359375,1.3320312,6.1923828,1.3320312
		c3.1679688,0,5.3994141-0.4316406,6.6953125-1.2958984c1.2958984-0.8637695,1.9443359-1.9912109,1.9443359-3.3837891
		c0-0.815918-0.3007812-1.5839844-0.9003906-2.3041992c-0.6005859-0.7202148-1.6083984-1.3554688-3.0234375-1.9082031
		c-1.4169922-0.5512695-3.3730469-0.9716797-5.8681641-1.2597656c-2.1601562-0.2880859-4.1289062-0.7075195-5.9042969-1.2602539
		c-1.7763672-0.5507812-3.2880859-1.2832031-4.5361328-2.1958008c-1.2480469-0.9111328-2.2080078-2.0273438-2.8798828-3.3481445
		c-0.6728516-1.3193359-1.0078125-2.8676758-1.0078125-4.644043c0-2.0629883,0.5634766-3.9350586,1.6923828-5.6157227
		c1.1269531-1.6796875,2.84375-3.0351562,5.1474609-4.0678711c2.3037109-1.0317383,5.1845703-1.5483398,8.640625-1.5483398
		c3.3583984,0,6.1074219,0.5400391,8.2431641,1.6201172s3.7558594,2.496582,4.8603516,4.2480469
		c1.1035156,1.7529297,1.7753906,3.6606445,2.015625,5.7241211h-7.9199219
		c-0.3847656-1.4873047-1.1640625-2.6391602-2.3398438-3.4560547c-1.1767578-0.815918-2.796875-1.2241211-4.859375-1.2241211
		c-2.8330078,0-4.8007812,0.4321289-5.9042969,1.2958984c-1.1044922,0.8642578-1.65625,1.8720703-1.65625,3.0239258
		c0,1.2490234,0.6123047,2.3164062,1.8359375,3.2041016c1.2246094,0.8886719,3.6601562,1.5244141,7.3085938,1.9082031
		c2.2548828,0.2880859,4.2949219,0.7197266,6.1191406,1.2958984s3.3955078,1.3320312,4.7167969,2.2680664
		c1.3193359,0.9360352,2.3398438,2.0766602,3.0595703,3.4199219c0.7197266,1.3442383,1.0800781,2.9521484,1.0800781,4.8242188
		c0,2.159668-0.6123047,4.1162109-1.8359375,5.8676758c-1.2236328,1.7529297-3.0605469,3.1445312-5.5078125,4.1762695
		C244.8126526,61.4746094,241.740387,61.9912109,238.0450745,61.9912109z"/>
	<path d="M273.4391174,61.559082c-2.8793945,0-5.2192383-0.4072266-7.019043-1.2236328
		c-1.7998047-0.815918-3.1210938-2.0996094-3.9599609-3.8520508c-0.8408203-1.7519531-1.2607422-4.0200195-1.2607422-6.8041992
		V29.8071289h-5.3994141v-6.7680664h5.3994141v-8.6396484h7.9208984v8.6396484h9.7192383v6.7680664h-9.7192383v18.7919922
		c0,2.2568359,0.4189453,3.8286133,1.2597656,4.7163086c0.8388672,0.8886719,2.4584961,1.3320312,4.8588867,1.3320312
		c1.4404297,0,2.8808594-0.0722656,4.3203125-0.2163086v6.7680664c-0.9121094,0.0957031-1.8486328,0.1801758-2.8076172,0.2519531
		C275.7906799,61.5234375,274.6871643,61.559082,273.4391174,61.559082z"/>
	<path d="M299.5953674,61.9912109c-3.3603516,0-6.4560547-0.7089844-9.2880859-2.1240234s-5.1113281-3.5639648-6.8398438-6.4438477
		c-1.7275391-2.8798828-2.5917969-6.5273438-2.5917969-10.9443359v-1.4399414c0-4.2231445,0.828125-7.7275391,2.484375-10.5117188
		c1.6552734-2.7832031,3.8515625-4.8603516,6.5878906-6.2280273c2.7363281-1.3681641,5.7119141-2.0522461,8.9277344-2.0522461
		c5.8076172,0,10.2597656,1.5605469,13.3564453,4.6801758c3.0957031,3.1206055,4.6435547,7.5849609,4.6435547,13.3920898v4.0317383
		H288.940094c0.0957031,2.5922852,0.6474609,4.6801758,1.6552734,6.2641602
		c1.0087891,1.5839844,2.3046875,2.7246094,3.8886719,3.4199219c1.5839844,0.6962891,3.2871094,1.0439453,5.1113281,1.0439453
		c2.7363281,0,4.7402344-0.4316406,6.0126953-1.2958984c1.2705078-0.8637695,2.1474609-1.9912109,2.6279297-3.3837891h7.9199219
		c-0.7685547,3.7919922-2.6533203,6.6723633-5.6523438,8.6396484
		C307.5035706,61.0078125,303.8678284,61.9912109,299.5953674,61.9912109z M299.2359924,29.1591797
		c-1.7763672,0-3.4326172,0.3129883-4.9677734,0.9360352c-1.5371094,0.6245117-2.7851562,1.6088867-3.7441406,2.9521484
		c-0.9609375,1.3442383-1.4882812,3.144043-1.5839844,5.3999023h20.015625
		c-0.0478516-2.3999023-0.5039062-4.2714844-1.3681641-5.6162109c-0.8642578-1.3432617-2.015625-2.2915039-3.4560547-2.84375
		C302.6920471,29.4360352,301.0592346,29.1591797,299.2359924,29.1591797z"/>
	<path d="M321.4830627,61.1992188V23.0390625h7.34375v6.4799805c0.5283203-1.3432617,1.2597656-2.5556641,2.1962891-3.6357422
		c0.9355469-1.0800781,2.0878906-1.9555664,3.4560547-2.6279297c1.3681641-0.671875,2.9160156-1.0083008,4.6435547-1.0083008
		c1.1992188,0,2.0996094,0.0483398,2.7001953,0.144043c0.5996094,0.0966797,1.0195312,0.1923828,1.2597656,0.2880859v7.2001953
		c-0.8164062-0.2397461-1.5595703-0.4199219-2.2314453-0.5400391c-0.6728516-0.1196289-1.4882812-0.1801758-2.4482422-0.1801758
		c-2.0644531,0-3.7685547,0.4682617-5.1123047,1.4038086c-1.34375,0.9360352-2.328125,2.1367188-2.9511719,3.6000977
		c-0.625,1.4648438-0.9365234,3.0366211-0.9365234,4.7163086v22.3198242H321.4830627z"/>
</g>
<g>
	<path d="M35.7355042,122.6860352V72.2861328h33.8398438v7.487793H44.3751526v13.2480469h23.0400391v7.4882812H44.3751526
		v14.6879883h25.2001953v7.487793H35.7355042z"/>
	<path d="M74.7511292,122.6860352V84.5258789h7.34375v6.4082031c0.9111328-1.9194336,2.3994141-3.6000977,4.4638672-5.0400391
		c2.0634766-1.4399414,4.7275391-2.1601562,7.9921875-2.1601562c4.6552734,0,8.1601562,1.2602539,10.5117188,3.7802734
		s3.5283203,6.2041016,3.5283203,11.0517578v24.1201172h-7.9199219v-22.3198242c0-3.215332-0.6728516-5.6396484-2.015625-7.2719727
		c-1.3447266-1.6313477-3.5527344-2.4482422-6.6240234-2.4482422c-2.2089844,0-3.9960938,0.4682617-5.3642578,1.4038086
		c-1.3681641,0.9360352-2.3759766,2.1367188-3.0244141,3.6000977c-0.6474609,1.4648438-0.9716797,3.0366211-0.9716797,4.7163086
		v22.3198242H74.7511292z"/>
	<path d="M130.9249573,137.878418c-3.9365234,0-7.0683594-0.4804688-9.3955078-1.4404297
		c-2.3291016-0.9609375-4.0322266-2.2919922-5.1123047-3.9960938s-1.7636719-3.6357422-2.0517578-5.7958984h8.0634766
		c0.3837891,1.1523438,1.1630859,2.2080078,2.3398438,3.1679688c1.1757812,0.9599609,3.2275391,1.4404297,6.15625,1.4404297
		c3.6005859,0,6.2392578-0.8642578,7.9199219-2.5917969c1.6796875-1.7285156,2.5205078-4.2011719,2.5205078-7.4165039v-5.3999023
		c-1.2011719,2.015625-2.8330078,3.671875-4.8964844,4.9677734c-2.0644531,1.2958984-4.5361328,1.9443359-7.4160156,1.9443359
		c-3.2158203,0-6.0361328-0.7202148-8.4599609-2.1601562s-4.3085938-3.5751953-5.6513672-6.4082031
		c-1.3447266-2.831543-2.0166016-6.359375-2.0166016-10.5839844v-1.4399414c0-3.9350586,0.671875-7.2719727,2.0166016-10.0078125
		c1.3427734-2.7363281,3.2275391-4.8242188,5.6513672-6.2641602s5.2197266-2.1601562,8.3876953-2.1601562
		s5.8916016,0.7202148,8.1728516,2.1601562c2.2792969,1.4399414,3.875,3.1206055,4.7880859,5.0400391v-6.4082031h7.34375v36.3603516
		c0,5.375-1.5371094,9.5517578-4.6083984,12.5283203C141.6046448,136.3901367,137.0206604,137.878418,130.9249573,137.878418z
		 M130.8526917,115.8461914c1.8720703,0,3.6005859-0.3959961,5.1845703-1.1879883s2.8671875-1.9677734,3.8515625-3.5283203
		c0.9833984-1.559082,1.4765625-3.4916992,1.4765625-5.7958984v-5.0400391c0-2.0629883-0.4931641-3.8037109-1.4765625-5.2197266
		c-0.984375-1.4155273-2.2802734-2.5078125-3.8876953-3.2763672c-1.6083984-0.7670898-3.3242188-1.1518555-5.1484375-1.1518555
		c-3.0234375,0-5.4248047,0.9482422-7.1992188,2.8442383c-1.7763672,1.8964844-2.6640625,4.7875977-2.6640625,8.6757812v1.4399414
		c0,4.0805664,0.9111328,7.140625,2.7353516,9.1801758C125.5489807,114.8266602,127.9249573,115.8461914,130.8526917,115.8461914z"
		/>
	<path d="M159.9474182,80.2060547c-1.4882812,0-2.7001953-0.4682617-3.6357422-1.4038086
		c-0.9355469-0.9360352-1.4042969-2.1479492-1.4042969-3.6362305c0-1.4873047,0.46875-2.7001953,1.4042969-3.6357422
		c0.9355469-0.9360352,2.1474609-1.4042969,3.6357422-1.4042969c1.4873047,0,2.7001953,0.4682617,3.6367188,1.4042969
		c0.9355469,0.9355469,1.4033203,2.1484375,1.4033203,3.6357422c0,1.4882812-0.4677734,2.7001953-1.4033203,3.6362305
		C162.6476135,79.737793,161.4347229,80.2060547,159.9474182,80.2060547z M155.9874573,122.6860352V84.5258789h7.9199219v38.1601562
		H155.9874573z"/>
	<path d="M170.646637,122.6860352V84.5258789h7.34375v6.4082031c0.9111328-1.9194336,2.3994141-3.6000977,4.4638672-5.0400391
		c2.0634766-1.4399414,4.7275391-2.1601562,7.9921875-2.1601562c4.6552734,0,8.1601562,1.2602539,10.5117188,3.7802734
		s3.5283203,6.2041016,3.5283203,11.0517578v24.1201172h-7.9199219v-22.3198242c0-3.215332-0.6728516-5.6396484-2.015625-7.2719727
		c-1.3447266-1.6313477-3.5527344-2.4482422-6.6240234-2.4482422c-2.2089844,0-3.9960938,0.4682617-5.3642578,1.4038086
		c-1.3681641,0.9360352-2.3759766,2.1367188-3.0244141,3.6000977c-0.6474609,1.4648438-0.9716797,3.0366211-0.9716797,4.7163086
		v22.3198242H170.646637z"/>
	<path d="M227.4171448,123.4780273c-3.3603516,0-6.4560547-0.7089844-9.2880859-2.1240234s-5.1113281-3.5639648-6.8398438-6.4438477
		c-1.7275391-2.8798828-2.5917969-6.5273438-2.5917969-10.9443359v-1.4399414c0-4.2231445,0.828125-7.7275391,2.484375-10.5117188
		c1.6552734-2.7832031,3.8515625-4.8603516,6.5878906-6.2280273c2.7363281-1.3681641,5.7119141-2.0522461,8.9277344-2.0522461
		c5.8076172,0,10.2597656,1.5605469,13.3564453,4.6801758c3.0957031,3.1206055,4.6435547,7.5849609,4.6435547,13.3920898v4.0317383
		h-27.9355469c0.0957031,2.5922852,0.6474609,4.6801758,1.6552734,6.2641602
		c1.0087891,1.5839844,2.3046875,2.7246094,3.8886719,3.4199219c1.5839844,0.6962891,3.2871094,1.0439453,5.1113281,1.0439453
		c2.7363281,0,4.7402344-0.4316406,6.0126953-1.2958984c1.2705078-0.8637695,2.1474609-1.9912109,2.6279297-3.3837891h7.9199219
		c-0.7685547,3.7919922-2.6533203,6.6723633-5.6523438,8.6396484
		C235.3253479,122.4946289,231.6896057,123.4780273,227.4171448,123.4780273z M227.0577698,90.6459961
		c-1.7763672,0-3.4326172,0.3129883-4.9677734,0.9360352c-1.5371094,0.6245117-2.7851562,1.6088867-3.7441406,2.9521484
		c-0.9609375,1.3442383-1.4882812,3.144043-1.5839844,5.3999023h20.015625
		c-0.0478516-2.3999023-0.5039062-4.2714844-1.3681641-5.6162109c-0.8642578-1.3432617-2.015625-2.2915039-3.4560547-2.84375
		C230.5138245,90.9228516,228.881012,90.6459961,227.0577698,90.6459961z"/>
	<path d="M266.1163635,123.4780273c-3.3603516,0-6.4560547-0.7089844-9.2880859-2.1240234s-5.1113281-3.5639648-6.8398438-6.4438477
		c-1.7275391-2.8798828-2.5917969-6.5273438-2.5917969-10.9443359v-1.4399414c0-4.2231445,0.828125-7.7275391,2.484375-10.5117188
		c1.6552734-2.7832031,3.8515625-4.8603516,6.5878906-6.2280273c2.7363281-1.3681641,5.7119141-2.0522461,8.9277344-2.0522461
		c5.8076172,0,10.2592773,1.5605469,13.355957,4.6801758c3.0957031,3.1206055,4.6435547,7.5849609,4.6435547,13.3920898v4.0317383
		h-27.9350586c0.0957031,2.5922852,0.6474609,4.6801758,1.6552734,6.2641602
		c1.0087891,1.5839844,2.3046875,2.7246094,3.8886719,3.4199219c1.5839844,0.6962891,3.2871094,1.0439453,5.1113281,1.0439453
		c2.7363281,0,4.7402344-0.4316406,6.012207-1.2958984c1.2705078-0.8637695,2.1474609-1.9912109,2.6279297-3.3837891h7.9199219
		c-0.7685547,3.7919922-2.6533203,6.6723633-5.6523438,8.6396484
		C274.0240784,122.4946289,270.3888245,123.4780273,266.1163635,123.4780273z M265.7569885,90.6459961
		c-1.7763672,0-3.4326172,0.3129883-4.9677734,0.9360352c-1.5371094,0.6245117-2.7851562,1.6088867-3.7441406,2.9521484
		c-0.9609375,1.3442383-1.4882812,3.144043-1.5839844,5.3999023h20.0151367
		c-0.0478516-2.3999023-0.5039062-4.2714844-1.3681641-5.6162109c-0.8642578-1.3432617-2.015625-2.2915039-3.4555664-2.84375
		C269.2130432,90.9228516,267.5802307,90.6459961,265.7569885,90.6459961z"/>
	<path d="M288.0035706,122.6860352V84.5258789h7.34375v6.4799805c0.5283203-1.3432617,1.2597656-2.5556641,2.1962891-3.6357422
		c0.9355469-1.0800781,2.0878906-1.9555664,3.4560547-2.6279297c1.3681641-0.671875,2.9160156-1.0083008,4.6435547-1.0083008
		c1.1992188,0,2.0996094,0.0483398,2.7001953,0.144043c0.5996094,0.0966797,1.0195312,0.1923828,1.2597656,0.2880859v7.2001953
		c-0.8164062-0.2397461-1.5595703-0.4199219-2.2314453-0.5400391c-0.6728516-0.1196289-1.4882812-0.1801758-2.4482422-0.1801758
		c-2.0644531,0-3.7685547,0.4682617-5.1123047,1.4038086c-1.34375,0.9360352-2.328125,2.1367188-2.9511719,3.6000977
		c-0.625,1.4648438-0.9365234,3.0366211-0.9365234,4.7163086v22.3198242H288.0035706z"/>
	<path d="M316.8824768,80.2060547c-1.4882812,0-2.7001953-0.4682617-3.6357422-1.4038086
		c-0.9355469-0.9360352-1.4042969-2.1479492-1.4042969-3.6362305c0-1.4873047,0.46875-2.7001953,1.4042969-3.6357422
		c0.9355469-0.9360352,2.1474609-1.4042969,3.6357422-1.4042969c1.4873047,0,2.7001953,0.4682617,3.6367188,1.4042969
		c0.9355469,0.9355469,1.4033203,2.1484375,1.4033203,3.6357422c0,1.4882812-0.4677734,2.7001953-1.4033203,3.6362305
		C319.5826721,79.737793,318.3697815,80.2060547,316.8824768,80.2060547z M312.9225159,122.6860352V84.5258789h7.9199219v38.1601562
		H312.9225159z"/>
	<path d="M327.580719,122.6860352V84.5258789h7.34375v6.4082031c0.9111328-1.9194336,2.3994141-3.6000977,4.4638672-5.0400391
		c2.0634766-1.4399414,4.7275391-2.1601562,7.9921875-2.1601562c4.6552734,0,8.1601562,1.2602539,10.5117188,3.7802734
		s3.5283203,6.2041016,3.5283203,11.0517578v24.1201172h-7.9199219v-22.3198242c0-3.215332-0.6728516-5.6396484-2.015625-7.2719727
		c-1.3447266-1.6313477-3.5527344-2.4482422-6.6240234-2.4482422c-2.2089844,0-3.9960938,0.4682617-5.3642578,1.4038086
		c-1.3681641,0.9360352-2.3759766,2.1367188-3.0244141,3.6000977c-0.6474609,1.4648438-0.9716797,3.0366211-0.9716797,4.7163086
		v22.3198242H327.580719z"/>
	<path d="M383.7545471,137.878418c-3.9365234,0-7.0683594-0.4804688-9.3955078-1.4404297
		c-2.3291016-0.9609375-4.0322266-2.2919922-5.1123047-3.9960938s-1.7636719-3.6357422-2.0517578-5.7958984h8.0634766
		c0.3837891,1.1523438,1.1630859,2.2080078,2.3398438,3.1679688c1.1757812,0.9599609,3.2275391,1.4404297,6.15625,1.4404297
		c3.6005859,0,6.2392578-0.8642578,7.9199219-2.5917969c1.6796875-1.7285156,2.5205078-4.2011719,2.5205078-7.4165039v-5.3999023
		c-1.2011719,2.015625-2.8330078,3.671875-4.8964844,4.9677734c-2.0644531,1.2958984-4.5361328,1.9443359-7.4160156,1.9443359
		c-3.2158203,0-6.0361328-0.7202148-8.4599609-2.1601562s-4.3085938-3.5751953-5.6513672-6.4082031
		c-1.3447266-2.831543-2.0166016-6.359375-2.0166016-10.5839844v-1.4399414c0-3.9350586,0.671875-7.2719727,2.0166016-10.0078125
		c1.3427734-2.7363281,3.2275391-4.8242188,5.6513672-6.2641602s5.2197266-2.1601562,8.3876953-2.1601562
		s5.8916016,0.7202148,8.1728516,2.1601562c2.2792969,1.4399414,3.875,3.1206055,4.7880859,5.0400391v-6.4082031h7.34375v36.3603516
		c0,5.375-1.5371094,9.5517578-4.6083984,12.5283203C394.4342346,136.3901367,389.8502502,137.878418,383.7545471,137.878418z
		 M383.6822815,115.8461914c1.8720703,0,3.6005859-0.3959961,5.1845703-1.1879883s2.8671875-1.9677734,3.8515625-3.5283203
		c0.9833984-1.559082,1.4765625-3.4916992,1.4765625-5.7958984v-5.0400391c0-2.0629883-0.4931641-3.8037109-1.4765625-5.2197266
		c-0.984375-1.4155273-2.2802734-2.5078125-3.8876953-3.2763672c-1.6083984-0.7670898-3.3242188-1.1518555-5.1484375-1.1518555
		c-3.0234375,0-5.4248047,0.9482422-7.1992188,2.8442383c-1.7763672,1.8964844-2.6640625,4.7875977-2.6640625,8.6757812v1.4399414
		c0,4.0805664,0.9111328,7.140625,2.7353516,9.1801758C378.3785706,114.8266602,380.7545471,115.8461914,383.6822815,115.8461914z"
		/>
</g>
<path d="M12.5309238,116.5660934L23.7330246,98.314621c0.2931328-0.4776001-0.0505199-1.0917435-0.6109028-1.0917435H0.7179205
	c-0.5603832,0-0.9040368,0.6141434-0.6109029,1.0917435l11.2021008,18.2514725
	C11.5888643,117.0218811,12.2511778,117.0218811,12.5309238,116.5660934z"/>
</svg>
